HIERARCHY
ROOT Pelvis
{
	OFFSET 0.000000 0.000000 0.000000
	CHANNELS 6 Xposition Yposition Zposition Xrotation Yrotation Zrotation
	JOINT LeftUpLeg_virtual
	{
		OFFSET 0.000000 0.000000 0.000000
		CHANNELS 3 Xrotation Yrotation Zrotation
		JOINT LeftUpLeg
		{
			OFFSET 18.735201 -5.666702 -4.541200
			CHANNELS 3 Xrotation Yrotation Zrotation
			JOINT LeftLeg
			{
				OFFSET -0.021200 -31.938179 0.493100
				CHANNELS 3 Xrotation Yrotation Zrotation
				JOINT LeftFoot
				{
					OFFSET 0.021200 -31.938179 -4.336299
					CHANNELS 3 Xrotation Yrotation Zrotation
					JOINT LeftToeBase
					{
						OFFSET 0.943001 -26.722000 15.023500
						CHANNELS 3 Xrotation Yrotation Zrotation
						End Site
						{
							OFFSET 0 0 0
						}
					}
				}
			}
		}
	}
	JOINT RightUpLeg_virtual
	{
		OFFSET 0.000000 0.000000 0.000000
		CHANNELS 3 Xrotation Yrotation Zrotation
		JOINT RightUpLeg
		{
			OFFSET -18.735201 -5.666702 -4.541200
			CHANNELS 3 Xrotation Yrotation Zrotation
			JOINT RightLeg
			{
				OFFSET 0.018946 -31.938133 0.493100
				CHANNELS 3 Xrotation Yrotation Zrotation
				JOINT RightFoot
				{
					OFFSET -0.018946 -31.938126 -4.336299
					CHANNELS 3 Xrotation Yrotation Zrotation
					JOINT RightToeBase
					{
						OFFSET -0.943001 -26.722004 15.023500
						CHANNELS 3 Xrotation Yrotation Zrotation
						End Site
						{
							OFFSET 0 0 0
						}
					}
				}
			}
		}
	}
	JOINT Hips_virtual
	{
		OFFSET 0.000000 0.000000 0.000000
		CHANNELS 3 Xrotation Yrotation Zrotation
		JOINT Hips
		{
			OFFSET -0.000000 -0.000000 -0.000000
			CHANNELS 3 Xrotation Yrotation Zrotation
			JOINT Spine
			{
				OFFSET 0.000000 10.199997 -0.299500
				CHANNELS 3 Xrotation Yrotation Zrotation
				JOINT Spine1
				{
					OFFSET 0.000000 11.900002 -1.516600
					CHANNELS 3 Xrotation Yrotation Zrotation
					JOINT Spine2
					{
						OFFSET 0.000000 13.600006 -2.842500
						CHANNELS 3 Xrotation Yrotation Zrotation
						JOINT Neck_virtual
						{
							OFFSET 0.000000 0.000000 0.000000
							CHANNELS 3 Xrotation Yrotation Zrotation
							JOINT Neck
							{
								OFFSET 0.000000 9.624100 -2.890100
								CHANNELS 3 Xrotation Yrotation Zrotation
								JOINT Head
								{
									OFFSET 0.000000 14.068802 -1.351900
									CHANNELS 3 Xrotation Yrotation Zrotation
									End Site
									{
										OFFSET 0 0 0
									}
								}
							}
						}
						JOINT LeftShoulder_virtual
						{
							OFFSET 0.000000 0.000000 0.000000
							CHANNELS 3 Xrotation Yrotation Zrotation
							JOINT LeftShoulder
							{
								OFFSET 15.263000 10.923401 -0.547700
								CHANNELS 3 Xrotation Yrotation Zrotation
								JOINT LeftArm
								{
									OFFSET 25.438599 -2.830597 -13.032500
									CHANNELS 3 Xrotation Yrotation Zrotation
									JOINT LeftForeArm
									{
										OFFSET 29.960503 0.000000 0.000000
										CHANNELS 3 Xrotation Yrotation Zrotation
										JOINT LeftHand
										{
											OFFSET 27.849251 0.000000 0.000000
											CHANNELS 3 Xrotation Yrotation Zrotation
											End Site
											{
												OFFSET 0 0 0
											}
										}
									}
								}
							}
						}
						JOINT RightShoulder_virtual
						{
							OFFSET 0.000000 0.000000 0.000000
							CHANNELS 3 Xrotation Yrotation Zrotation
							JOINT RightShoulder
							{
								OFFSET -15.263000 10.923401 -0.547700
								CHANNELS 3 Xrotation Yrotation Zrotation
								JOINT RightArm
								{
									OFFSET -25.438599 -2.830597 -13.032500
									CHANNELS 3 Xrotation Yrotation Zrotation
									JOINT RightForeArm
									{
										OFFSET -29.960503 0.000000 0.000000
										CHANNELS 3 Xrotation Yrotation Zrotation
										JOINT RightHand
										{
											OFFSET -27.849251 0.000000 0.000000
											CHANNELS 3 Xrotation Yrotation Zrotation
											End Site
											{
												OFFSET 0 0 0
											}
										}
									}
								}
							}
						}
					}
				}
			}
		}
	}
}
MOTION
Frames: 8
Frame Time: 0.03333333
-5.347316 36.697304 78.233559 0.000000 0.000000 0.000000 18.599196 -23.648343 -5.506390 -10.861667 1.839872 4.820015 93.739838 -19.045154 -2.491405 31.731191 -6.941140 -32.611520 0.000000 0.000000 0.000000 18.599196 -23.648343 -5.506390 -6.542658 17.325485 -8.384291 60.892462 14.794528 -14.077892 60.539873 12.222911 24.643801 0.000000 0.000000 0.000000 18.599196 -23.648343 -5.506390 -0.000001 0.000000 0.000000 5.481375 0.428992 0.365353 -5.171062 1.550855 1.959063 0.000000 0.000000 0.000000 -5.193916 1.508886 1.857959 -12.386364 1.507717 2.573028 0.000000 0.000000 0.000000 -5.193916 1.508886 1.857959 -18.582081 2.045154 -16.773568 3.520078 11.137062 -50.723075 73.636830 -20.517120 30.047074 0.000000 0.000000 0.000000 -5.193916 1.508886 1.857959 -18.392412 3.617955 16.265221 6.546140 -5.489178 58.074052 -12.534787 31.895023 15.129561 0.000000 0.000000 0.000000 
-4.948050 36.550949 80.180847 0.000000 0.000000 0.000000 20.487994 -24.188843 -5.711550 -9.596729 1.244678 3.571693 90.572885 -18.733993 -2.284146 31.661202 -7.096716 -33.328892 0.000000 0.000000 0.000000 20.487994 -24.188843 -5.711550 -7.331933 16.226357 -8.026491 60.705109 14.702080 -13.841201 58.063513 11.436251 24.302460 0.000000 0.000000 0.000000 20.487994 -24.188843 -5.711550 0.000001 0.000001 0.000001 5.370092 0.332008 0.738892 -5.387903 1.463347 2.228127 0.000000 0.000000 0.000000 -5.408686 1.438965 2.129568 -12.786613 1.552102 2.681393 0.000000 0.000000 0.000000 -5.408686 1.438965 2.129568 -18.927004 2.423272 -16.209297 6.399252 13.475594 -49.024038 73.253328 -19.968937 30.111391 0.000000 0.000000 0.000000 -5.408686 1.438965 2.129568 -18.645064 3.158385 16.723942 7.365360 -4.012500 58.411662 -23.798083 35.944209 23.539286 0.000000 0.000000 0.000000 
-4.871151 36.177849 81.974922 0.000000 0.000000 0.000000 22.622770 -24.463871 -5.608365 -8.940877 0.101336 2.284134 87.985438 -17.361718 -1.869458 32.019288 -7.195663 -33.192964 0.000000 0.000000 0.000000 22.622770 -24.463871 -5.608365 -7.004427 15.166894 -8.060718 59.275305 15.189741 -13.275054 57.684397 11.530415 24.702772 0.000000 0.000000 0.000000 22.622770 -24.463871 -5.608365 0.000000 0.000000 0.000000 5.289242 0.374956 0.840426 -5.579765 1.386650 2.467673 0.000000 0.000000 0.000000 -5.597971 1.382303 2.371569 -13.245648 1.577957 2.746366 0.000000 0.000000 0.000000 -5.597971 1.382303 2.371569 -19.324734 2.867692 -15.372847 11.222557 12.997946 -47.136088 70.495871 -22.628990 28.974475 0.000000 0.000000 0.000000 -5.597971 1.382303 2.371569 -18.954770 2.720315 17.238100 8.007428 -1.543122 58.368993 -23.446754 42.276419 23.971092 0.000000 0.000000 0.000000 
-4.898825 35.604843 83.781372 0.000000 0.000000 0.000000 24.971079 -24.482034 -5.352183 -8.364954 -1.615183 0.820768 85.428297 -15.239723 -1.219197 32.115915 -7.290027 -33.425860 0.000000 0.000000 0.000000 24.971079 -24.482034 -5.352183 -6.181617 14.339420 -8.400468 57.120322 14.529634 -12.702764 59.355799 11.891389 24.532771 0.000000 0.000000 0.000000 24.971079 -24.482034 -5.352183 0.000001 0.000001 -0.000000 5.247739 0.481033 0.814575 -5.734332 1.325687 2.674345 0.000000 0.000000 0.000000 -5.749950 1.343244 2.579083 -13.738477 1.593540 2.770534 0.000000 0.000000 0.000000 -5.749950 1.343244 2.579083 -19.699145 3.311103 -14.383115 15.604025 11.619175 -44.492402 63.822046 -28.749188 24.713750 0.000000 0.000000 0.000000 -5.749950 1.343244 2.579083 -19.283603 2.435056 17.604324 8.641510 1.247379 57.688980 -13.643544 49.929250 16.025065 0.000000 0.000000 0.000000 
-4.755674 34.895729 85.750626 0.000000 0.000000 0.000000 27.568312 -24.098992 -5.265833 -7.673504 -3.293608 -0.874207 81.787021 -14.108211 -0.605433 32.586272 -7.608850 -34.203627 0.000000 0.000000 0.000000 27.568312 -24.098992 -5.265833 -5.913210 13.673088 -8.209290 56.272282 14.070951 -12.446614 59.481181 11.895950 24.442100 0.000000 0.000000 0.000000 27.568312 -24.098992 -5.265833 0.000001 0.000001 0.000001 5.240262 0.514412 0.969383 -5.845203 1.287938 2.843426 0.000000 0.000000 0.000000 -5.858592 1.328614 2.746264 -14.225313 1.598729 2.747625 0.000000 0.000000 0.000000 -5.858592 1.328614 2.746264 -19.982823 3.650322 -13.444830 18.325695 10.812072 -42.020697 54.988538 -34.777780 18.159123 0.000000 0.000000 0.000000 -5.858592 1.328614 2.746264 -19.525827 2.412065 17.411494 9.771825 3.552145 56.940398 3.947457 55.524831 0.152035 0.000000 0.000000 0.000000 
-4.632199 33.943733 87.726013 0.000000 0.000000 0.000000 30.453703 -23.351850 -5.090025 -7.163654 -5.254654 -2.715612 78.247036 -13.083180 0.212487 32.193195 -7.819032 -35.699346 0.000000 0.000000 0.000000 30.453703 -23.351850 -5.090025 -5.185286 12.953424 -8.119412 55.224320 15.228107 -11.995432 59.567152 12.287321 25.216338 0.000000 0.000000 0.000000 30.453703 -23.351850 -5.090025 0.000001 0.000001 0.000001 5.261731 0.595666 1.025154 -5.912644 1.281302 2.969704 0.000000 0.000000 0.000000 -5.924805 1.345332 2.866669 -14.665577 1.605484 2.693894 0.000000 0.000000 0.000000 -5.924805 1.345332 2.866669 -20.144861 3.830061 -12.686433 19.494781 10.754158 -40.274682 47.363137 -39.125871 12.447304 0.000000 0.000000 0.000000 -5.924805 1.345332 2.866669 -19.646720 2.493593 16.653179 11.247104 5.054227 56.197895 21.701552 57.218018 -16.941497 0.000000 0.000000 0.000000 
-4.573717 32.724350 89.777824 0.000000 0.000000 0.000000 33.690130 -22.124798 -4.831838 -6.748756 -7.313207 -4.565082 74.356513 -11.923896 1.294564 31.906798 -8.064992 -37.218278 0.000000 0.000000 0.000000 33.690130 -22.124798 -4.831838 -4.206838 12.325124 -8.140803 54.029511 16.196530 -11.535636 59.727962 12.897671 26.410853 0.000000 0.000000 0.000000 33.690130 -22.124798 -4.831838 -0.000001 -0.000000 0.000001 5.285415 0.699908 1.034639 -5.947388 1.302976 3.055230 0.000000 0.000000 0.000000 -5.958999 1.389035 2.943502 -15.027050 1.610872 2.627781 0.000000 0.000000 0.000000 -5.958999 1.389035 2.943502 -20.171715 3.805431 -12.171240 20.086302 11.120576 -39.153540 43.022378 -42.696243 9.867669 0.000000 0.000000 0.000000 -5.958999 1.389035 2.943502 -19.629144 2.652906 15.539278 13.365501 4.941606 55.299329 33.181978 57.778981 -28.838455 0.000000 0.000000 0.000000 
-4.450419 31.265251 92.017212 0.000000 0.000000 0.000000 37.343527 -20.341236 -4.601511 -6.322188 -9.696066 -6.316577 69.849647 -10.359324 2.776814 31.881394 -8.505969 -39.183286 0.000000 0.000000 0.000000 37.343527 -20.341236 -4.601511 -3.765143 11.480694 -8.167453 53.205691 15.476900 -11.141644 60.052458 12.870149 26.176160 0.000000 0.000000 0.000000 37.343527 -20.341236 -4.601511 -0.000002 0.000000 0.000000 5.299834 0.762016 1.143514 -5.953213 1.340453 3.108460 0.000000 0.000000 0.000000 -5.964446 1.445864 2.988519 -15.281725 1.614325 2.579167 0.000000 0.000000 0.000000 -5.964446 1.445864 2.988519 -20.054458 3.629518 -11.796365 20.841422 11.038352 -38.363400 42.921305 -46.109480 11.242508 0.000000 0.000000 0.000000 -5.964446 1.445864 2.988519 -19.495091 2.789001 14.267714 16.096528 2.797553 53.948973 34.870571 60.658227 -31.945993 0.000000 0.000000 0.000000 
